<svg width="38" height="38" viewBox="0 0 38 38" fill="none" xmlns="http://www.w3.org/2000/svg">
<g id="github">
<path id="Vector" d="M14.6235 30.1258C6.94242 32.5008 6.94242 26.1675 3.87 25.3758M25.3769 34.8758V28.7483C25.4346 27.9933 25.3356 27.2343 25.0866 26.5218C24.8376 25.8093 24.4444 25.1595 23.9329 24.6158C28.7566 24.0616 33.8261 22.1775 33.8261 13.5325C33.8257 11.3219 33.0007 9.19603 31.5218 7.59496C32.2221 5.66093 32.1726 3.52318 31.3835 1.6258C31.3835 1.6258 29.5708 1.07163 25.3769 3.96913C21.856 2.9856 18.1444 2.9856 14.6235 3.96913C10.4296 1.07163 8.61688 1.6258 8.61688 1.6258C7.82785 3.52318 7.77834 5.66093 8.47863 7.59496C6.9887 9.2079 6.16282 11.3529 6.17431 13.58C6.17431 22.1616 11.2438 24.0458 16.0675 24.6633C15.5621 25.2016 15.1723 25.8435 14.9235 26.5473C14.6747 27.2511 14.5725 28.0011 14.6235 28.7483V34.8758" stroke="#DB006A" stroke-width="2" stroke-linecap="round" stroke-linejoin="round"/>
</g>
</svg>
