<svg width="42" height="40" viewBox="0 0 42 40" fill="none" xmlns="http://www.w3.org/2000/svg">
<g id="linkedin">
<path id="Vector" d="M28.0416 13.3333C30.7435 13.3333 33.3347 14.3868 35.2453 16.2622C37.1558 18.1375 38.2291 20.6811 38.2291 23.3333V34.9999H31.4375V23.3333C31.4375 22.4492 31.0797 21.6014 30.4428 20.9762C29.806 20.3511 28.9423 19.9999 28.0416 19.9999C27.141 19.9999 26.2773 20.3511 25.6404 20.9762C25.0036 21.6014 24.6458 22.4492 24.6458 23.3333V34.9999H17.8541V23.3333C17.8541 20.6811 18.9274 18.1375 20.838 16.2622C22.7485 14.3868 25.3397 13.3333 28.0416 13.3333Z" stroke="#010F26" stroke-width="2" stroke-linecap="round" stroke-linejoin="round"/>
<path id="Vector_2" d="M11.0625 15H4.27087V35H11.0625V15Z" stroke="#010F26" stroke-width="2" stroke-linecap="round" stroke-linejoin="round"/>
<path id="Vector_3" d="M7.66671 10C9.54217 10 11.0625 8.50766 11.0625 6.66671C11.0625 4.82576 9.54217 3.33337 7.66671 3.33337C5.79124 3.33337 4.27087 4.82576 4.27087 6.66671C4.27087 8.50766 5.79124 10 7.66671 10Z" stroke="#010F26" stroke-width="2" stroke-linecap="round" stroke-linejoin="round"/>
</g>
</svg>
