<svg width="39" height="39" viewBox="0 0 39 39" fill="none" xmlns="http://www.w3.org/2000/svg">
<g id="twitter">
<path id="Vector" d="M36.7329 4.87498C35.2231 5.97263 33.5514 6.81216 31.7822 7.36123C30.8327 6.23594 29.5707 5.43836 28.1671 5.07636C26.7634 4.71437 25.2857 4.80543 23.9339 5.33722C22.582 5.86901 21.4213 6.81589 20.6086 8.04977C19.7959 9.28366 19.3705 10.745 19.3899 12.2362V13.8612C16.6192 13.9353 13.8737 13.3019 11.3979 12.0176C8.92218 10.7332 6.79305 8.83777 5.20015 6.49998C5.20015 6.49998 -1.1064 21.125 13.0833 27.625C9.83629 29.8967 5.96822 31.0357 2.04688 30.875C16.2366 39 33.5796 30.875 33.5796 12.1875C33.5782 11.7348 33.5359 11.2833 33.4535 10.8387C35.0626 9.20316 36.1981 7.13814 36.7329 4.87498Z" stroke="white" stroke-width="2" stroke-linecap="round" stroke-linejoin="round"/>
</g>
</svg>
