<svg width="100" height="100" viewBox="0 0 100 100" fill="none" xmlns="http://www.w3.org/2000/svg">
<mask id="path-1-inside-1_5_9" fill="white">
<rect width="100" height="100" rx="5"/>
</mask>
<rect width="100" height="100" rx="5" stroke="#F40076" stroke-width="16" mask="url(#path-1-inside-1_5_9)"/>
<path d="M48.04 78.48C46.28 78.48 44.5467 78.4267 42.84 78.32C41.1867 78.2133 39.5333 78.0533 37.88 77.84C36.28 77.6267 34.7333 77.3867 33.24 77.12C31.7467 76.8533 30.3067 76.5333 28.92 76.16V63.84C30.7333 64 32.68 64.1333 34.76 64.24C36.8933 64.3467 39.0267 64.4267 41.16 64.48C43.3467 64.5333 45.3733 64.56 47.24 64.56C49 64.56 50.4667 64.4267 51.64 64.16C52.8133 63.8933 53.6933 63.4667 54.28 62.88C54.8667 62.2933 55.16 61.4933 55.16 60.48V59.52C55.16 58.3467 54.7333 57.4667 53.88 56.88C53.08 56.2933 52.12 56 51 56H46.76C40.5733 56 35.88 54.64 32.68 51.92C29.48 49.2 27.88 44.64 27.88 38.24V35.6C27.88 29.7333 29.64 25.36 33.16 22.48C36.68 19.5467 41.7467 18.08 48.36 18.08C50.8667 18.08 53.2133 18.2133 55.4 18.48C57.64 18.6933 59.72 18.9867 61.64 19.36C63.6133 19.68 65.3733 20.0267 66.92 20.4V32.72C64.4667 32.5067 61.6933 32.3467 58.6 32.24C55.56 32.08 52.7867 32 50.28 32C48.7867 32 47.4533 32.1067 46.28 32.32C45.1067 32.5333 44.2 32.96 43.56 33.6C42.92 34.24 42.6 35.1733 42.6 36.4V37.2C42.6 38.5333 43.0267 39.5467 43.88 40.24C44.7333 40.9333 46.04 41.28 47.8 41.28H53.08C56.8133 41.28 59.9067 42 62.36 43.44C64.8667 44.8267 66.7333 46.7467 67.96 49.2C69.24 51.6 69.88 54.3467 69.88 57.44V60.08C69.88 65.1467 69 69.0133 67.24 71.68C65.48 74.3467 62.9733 76.16 59.72 77.12C56.4667 78.0267 52.5733 78.48 48.04 78.48Z" fill="#225DBA"/>
</svg>
